<svg xmlns="http://www.w3.org/2000/svg" width="222" height="116" viewBox="0 0 222 116" fill="none">
  <path d="M214.153 15.1306L213.677 14.978L214.153 15.1306ZM219 -5.62433e-05L220.224 5.64223L214.726 3.88104L219 -5.62433e-05ZM1.26922 91.5786C2.24095 92.1995 3.21666 92.807 4.19617 93.4011L3.67756 94.2561C2.69139 93.658 1.70907 93.0464 0.730786 92.4213L1.26922 91.5786ZM10.1385 96.8176C12.1568 97.9157 14.1892 98.9592 16.234 99.9489L15.7983 100.849C13.7393 99.8524 11.6928 98.8016 9.66057 97.696L10.1385 96.8176ZM22.4869 102.792C24.602 103.693 26.7285 104.538 28.8645 105.328L28.5176 106.266C26.3665 105.47 24.225 104.619 22.095 103.712L22.4869 102.792ZM35.3543 107.551C37.5429 108.241 39.7396 108.876 41.9427 109.454L41.6886 110.421C39.4699 109.839 37.2575 109.2 35.0534 108.504L35.3543 107.551ZM48.6152 111.034C50.859 111.508 53.1074 111.925 55.3586 112.286L55.2001 113.274C52.9329 112.91 50.6684 112.489 48.4086 112.012L48.6152 111.034ZM62.1596 113.209C64.4381 113.461 66.7175 113.658 68.9958 113.799L68.9341 114.797C66.6396 114.655 64.3441 114.457 62.0494 114.203L62.1596 113.209ZM75.8514 114.056C78.1417 114.086 80.4289 114.06 82.711 113.98L82.7462 114.98C80.448 115.06 78.1447 115.086 75.8382 115.055L75.8514 114.056ZM89.5588 113.574C91.8401 113.383 94.1143 113.138 96.3793 112.839L96.5103 113.83C94.2295 114.132 91.9394 114.379 89.6421 114.57L89.5588 113.574ZM103.157 111.778C105.41 111.369 107.65 110.908 109.878 110.393L110.103 111.367C107.86 111.886 105.604 112.351 103.336 112.761L103.157 111.778ZM116.524 108.69C118.726 108.069 120.913 107.396 123.082 106.672L123.399 107.621C121.215 108.35 119.013 109.028 116.796 109.652L116.524 108.69ZM129.536 104.345C131.668 103.518 133.781 102.64 135.872 101.713L136.277 102.627C134.172 103.561 132.044 104.444 129.897 105.277L129.536 104.345ZM142.076 98.7817C144.119 97.7561 146.139 96.6813 148.133 95.5581L148.624 96.4293C146.616 97.5604 144.582 98.6427 142.524 99.6755L142.076 98.7817ZM154.028 92.049C155.963 90.8337 157.87 89.571 159.748 88.2617L160.32 89.082C158.429 90.4005 156.508 91.672 154.56 92.8958L154.028 92.049ZM165.279 84.2038C167.087 82.809 168.864 81.3687 170.608 79.8837L171.256 80.645C169.5 82.1405 167.711 83.591 165.89 84.9956L165.279 84.2038ZM175.721 75.3102C177.385 73.7476 179.015 72.1417 180.608 70.4929L181.327 71.1878C179.723 72.8482 178.082 74.4656 176.406 76.0392L175.721 75.3102ZM185.255 65.4421C186.757 63.727 188.221 61.9707 189.646 60.1739L190.43 60.7953C188.995 62.6049 187.52 64.3737 186.007 66.101L185.255 65.4421ZM193.775 54.6991C195.102 52.8475 196.388 50.9572 197.632 49.0287L198.472 49.5708C197.219 51.513 195.924 53.4168 194.588 55.2815L193.775 54.6991ZM201.209 43.1755C202.349 41.2039 203.447 39.1961 204.5 37.1525L205.389 37.6107C204.329 39.6686 203.223 41.6906 202.075 43.6761L201.209 43.1755ZM207.499 30.973C208.442 28.906 209.34 26.8054 210.193 24.6719L211.122 25.0431C210.263 27.1913 209.358 29.3065 208.409 31.3878L207.499 30.973ZM212.587 18.2491C212.962 17.1666 213.326 16.0762 213.677 14.978L214.63 15.2831C214.275 16.3887 213.91 17.4865 213.532 18.5763L212.587 18.2491ZM213.677 14.978L214.889 11.1954L215.841 11.5004L214.63 15.2831L213.677 14.978ZM214.153 15.1306L213.201 14.8255L214.153 15.1306ZM219 -5.62433e-05L221.448 11.2845L210.451 7.76213L219 -5.62433e-05ZM1.53845 91.1573C2.50689 91.7761 3.47929 92.3815 4.45547 92.9736L3.41827 94.6836C2.42876 94.0834 1.44312 93.4698 0.461561 92.8426L1.53845 91.1573ZM10.3774 96.3784C12.3888 97.4727 14.4141 98.5126 16.4518 99.4988L15.5805 101.299C13.5143 100.299 11.4608 99.2446 9.42162 98.1352L10.3774 96.3784ZM22.6828 102.332C24.7905 103.23 26.9095 104.072 29.038 104.859L28.3442 106.735C26.1854 105.936 24.0365 105.082 21.8991 104.172L22.6828 102.332ZM35.5048 107.074C37.6856 107.762 39.8745 108.394 42.0697 108.971L41.5616 110.905C39.335 110.32 37.1149 109.679 34.903 108.981L35.5048 107.074ZM48.7184 110.545C50.9543 111.017 53.1947 111.432 55.4379 111.793L55.1208 113.767C52.8456 113.402 50.5731 112.98 48.3053 112.502L48.7184 110.545ZM62.2147 112.712C64.4851 112.964 66.7564 113.159 69.0266 113.3L68.9032 115.296C66.6007 115.153 64.2971 114.955 61.9943 114.7L62.2147 112.712ZM75.8581 113.556C78.1402 113.586 80.4194 113.56 82.6935 113.481L82.7637 115.479C80.4575 115.56 78.1462 115.586 75.8316 115.555L75.8581 113.556ZM89.5172 113.076C91.7905 112.886 94.0567 112.641 96.3138 112.343L96.5758 114.326C94.287 114.628 91.989 114.876 89.6837 115.069L89.5172 113.076ZM103.068 111.286C105.313 110.879 107.546 110.419 109.765 109.906L110.216 111.855C107.965 112.375 105.701 112.841 103.425 113.253L103.068 111.286ZM116.389 108.209C118.583 107.59 120.762 106.92 122.924 106.198L123.557 108.095C121.365 108.827 119.156 109.507 116.931 110.134L116.389 108.209ZM129.355 103.878C131.48 103.055 133.585 102.18 135.669 101.256L136.48 103.084C134.367 104.021 132.233 104.908 130.078 105.743L129.355 103.878ZM141.851 98.3349C143.887 97.3128 145.9 96.2418 147.887 95.1224L148.869 96.865C146.854 98 144.813 99.086 142.749 100.122L141.851 98.3349ZM153.762 91.6256C155.69 90.4145 157.591 89.1563 159.462 87.8515L160.606 89.4921C158.708 90.8152 156.781 92.0912 154.826 93.3192L153.762 91.6256ZM164.974 83.8079C166.775 82.418 168.546 80.9828 170.284 79.503L171.58 81.0256C169.818 82.5264 168.022 83.9819 166.195 85.3915L164.974 83.8079ZM175.379 74.9457C177.037 73.3887 178.661 71.7884 180.248 70.1455L181.686 71.5352C180.077 73.2014 178.43 74.8245 176.748 76.4037L175.379 74.9457ZM184.878 65.1126C186.375 63.4036 187.835 61.6536 189.255 59.8632L190.822 61.106C189.381 62.922 187.901 64.697 186.383 66.4304L184.878 65.1126ZM193.368 54.4079C194.69 52.5629 195.972 50.6793 197.212 48.7576L198.892 49.8418C197.635 51.7909 196.335 53.7014 194.994 55.5727L193.368 54.4079ZM200.776 42.9252C201.913 40.9606 203.006 38.9598 204.056 36.9235L205.834 37.8398C204.769 39.9048 203.66 41.9339 202.508 43.9264L200.776 42.9252ZM207.044 30.7655C207.984 28.7057 208.879 26.6125 209.729 24.4863L211.586 25.2287C210.724 27.3843 209.817 29.5067 208.864 31.5953L207.044 30.7655ZM212.115 18.0855C212.488 17.0067 212.851 15.92 213.201 14.8255L215.106 15.4356C214.75 16.5449 214.383 17.6464 214.005 18.74L212.115 18.0855ZM213.201 14.8255L214.413 11.0429L216.317 11.653L215.106 15.4356L213.201 14.8255Z" fill="#1C1C1C"/>
</svg>